<?xml version="1.0" encoding="UTF-8" standalone="no"?>
<!-- Created with Inkscape (http://www.inkscape.org/) -->

<svg
   
   xmlns="http://www.w3.org/2000/svg"
   xmlns:sodipodi="http://sodipodi.sourceforge.net/DTD/sodipodi-0.dtd"
   xmlns:inkscape="http://www.inkscape.org/namespaces/inkscape"
   id="svg2"
   version="1.1"
   inkscape:version="0.91 r13725"
   width="100"
   height="100"
   viewBox="0 0 93.75 93.75"
   sodipodi:docname="android.svg">
  <metadata
     id="metadata8">
    <rdf:RDF>
      <cc:Work
         rdf:about="">
        <dc:format>image/svg+xml</dc:format>
        <dc:type
           rdf:resource="http://purl.org/dc/dcmitype/StillImage" />
        <dc:title></dc:title>
      </cc:Work>
    </rdf:RDF>
  </metadata>
  <defs
     id="defs6" />
  <sodipodi:namedview
     pagecolor="#ffffff"
     bordercolor="#666666"
     borderopacity="1"
     objecttolerance="10"
     gridtolerance="10"
     guidetolerance="10"
     inkscape:pageopacity="0"
     inkscape:pageshadow="2"
     inkscape:window-width="640"
     inkscape:window-height="480"
     id="namedview4"
     showgrid="false"
     inkscape:zoom="2.5173333"
     inkscape:cx="46.875"
     inkscape:cy="46.875"
     inkscape:window-x="248"
     inkscape:window-y="206"
     inkscape:window-maximized="0"
     inkscape:current-layer="svg2" />
  <path
     style="fill:#2b2b2b"
     d="M 31.930373,90.012283 C 16.767185,84.542451 5.4413093,71.832449 2.1801833,56.626345 -0.40310568,44.580882 3.0725373,29.250869 10.52012,19.841404 15.034494,14.137829 23.704786,7.6512666 30.355643,5.0017214 38.227985,1.865566 51.696965,1.4402867 60.308524,4.0559675 73.162639,7.9602847 84.717039,18.634245 89.508352,31.030783 c 3.163872,8.185864 3.584071,20.70497 0.982447,29.270251 -3.904111,12.853436 -14.552031,24.38715 -26.977089,29.221296 -4.09426,1.592931 -7.922773,2.210319 -15.303963,2.467928 -8.643369,0.301659 -10.628532,0.06046 -16.279374,-1.977975 z m 27.029906,-7.756246 c 9.524312,-3.314504 17.597558,-10.616963 21.911586,-19.819592 2.204345,-4.702281 2.494132,-6.46417 2.494132,-15.1642 0,-8.717881 -0.287371,-10.456873 -2.512553,-15.204436 C 72.022631,13.226723 49.085873,5.0457792 30.520068,14.115205 c -6.869175,3.355603 -14.074405,10.63554 -17.506772,17.68829 -2.494076,5.124773 -2.737523,6.500399 -2.737523,15.46875 0,8.968351 0.243447,10.343978 2.737523,15.46875 5.32012,10.931663 16.704606,19.482747 28.031042,21.054599 5.846089,0.811304 12.903311,0.20486 17.915941,-1.539557 z m -19.988458,-4.92633 c -1.729298,-0.438873 -4.787892,-1.539163 -6.796875,-2.445088 l -3.652699,-1.647138 0,-12.045117 0,-12.045119 18.28125,0 18.28125,0 0,12.072053 0,12.072052 -4.921875,2.133008 c -5.377977,2.33067 -15.816822,3.269257 -21.191051,1.905349 z M 20.787872,66.046487 c -3.157712,-3.693138 -3.515625,-4.648131 -3.515625,-9.380491 0,-5.413853 1.070179,-7.518751 3.822708,-7.518751 3.071602,0 3.756148,2.325575 3.478023,11.815726 l -0.269481,9.195256 -3.515625,-4.11174 z M 69.06951,60.496918 c 0.194476,-8.098709 0.51102,-9.918404 1.874612,-10.776455 3.102478,-1.95226 4.890363,0.378055 5.20069,6.778545 0.270981,5.588951 0.172194,5.862847 -3.515237,9.746272 l -3.794052,3.995715 0.233987,-9.744077 z M 28.997676,44.470552 c -0.991957,-1.605019 2.956021,-9.094161 5.96798,-11.320998 l 2.886976,-2.134433 -1.883277,-3.047207 c -1.065893,-1.724651 -1.497861,-3.285408 -0.995265,-3.596029 0.488407,-0.301852 1.767254,0.873821 2.841883,2.612607 1.856564,3.003984 2.143998,3.126661 5.771559,2.463315 2.099728,-0.383962 5.357956,-0.350727 7.240506,0.07386 1.882551,0.424584 3.462016,0.689814 3.509923,0.5894 1.368483,-2.868341 4.080628,-6.264995 4.482824,-5.614227 0.296231,0.479309 -0.194568,2.083584 -1.090661,3.565055 l -1.629261,2.693582 3.535862,3.19444 c 2.959681,2.673893 5.418882,7.528414 5.442793,10.744205 0.0081,1.079962 -35.411855,0.860494 -36.081842,-0.223568 z m 11.243321,-7.042057 c 0,-2.792004 -3.659621,-2.513064 -4.059413,0.309413 -0.25746,1.817638 0.05737,2.13246 1.875,1.875 1.456275,-0.206275 2.184413,-0.934413 2.184413,-2.184413 z m 17.596274,1.171875 c 0.66495,-1.906279 -0.329553,-3.515625 -2.172498,-3.515625 -2.066872,0 -3.126658,1.461884 -2.411274,3.326144 0.639465,1.666418 4.019843,1.806153 4.583772,0.189481 z"
     id="path3351"
     inkscape:connector-curvature="0" />
</svg>
