<?xml version="1.0" encoding="UTF-8" standalone="no"?>
<!-- Created with Inkscape (http://www.inkscape.org/) -->

<svg
   
   xmlns="http://www.w3.org/2000/svg"
   
   id="svg2"
   version="1.1"
   inkscape:version="0.91 r13725"
   width="100"
   height="100"
   viewBox="0 0 93.75 93.75"
   sodipodi:docname="ios.svg">
  <metadata
     id="metadata8">
    <rdf:RDF>
      <cc:Work
         rdf:about="">
        <dc:format>image/svg+xml</dc:format>
        <dc:type
           rdf:resource="http://purl.org/dc/dcmitype/StillImage" />
        <dc:title></dc:title>
      </cc:Work>
    </rdf:RDF>
  </metadata>
  <defs
     id="defs6" />
  <sodipodi:namedview
     pagecolor="#ffffff"
     bordercolor="#666666"
     borderopacity="1"
     objecttolerance="10"
     gridtolerance="10"
     guidetolerance="10"
     inkscape:pageopacity="0"
     inkscape:pageshadow="2"
     inkscape:window-width="640"
     inkscape:window-height="480"
     id="namedview4"
     showgrid="false"
     inkscape:zoom="2.5173333"
     inkscape:cx="46.875"
     inkscape:cy="46.875"
     inkscape:window-x="248"
     inkscape:window-y="206"
     inkscape:window-maximized="0"
     inkscape:current-layer="svg2" />
  <path
     style="fill:#2a2a2a"
     d="M 37.195203,90.310311 C 29.044557,88.539716 22.466929,84.775613 15.761454,78.044671 5.7873593,68.032691 0.99893732,53.914724 3.1084003,40.738978 6.6654943,18.521307 25.054949,2.6694916 47.272245,2.6694916 c 17.35773,0 32.309968,9.3038494 39.880162,24.8149454 8.502704,17.42179 5.31118,36.7292 -8.369371,50.631229 -6.495992,6.601159 -14.679792,10.992929 -23.479845,12.600271 -7.000698,1.278686 -10.740122,1.194922 -18.107988,-0.405626 z M 62.694074,79.704069 C 73.675993,74.565009 80.746359,65.252206 83.015411,52.937618 86.601871,33.473201 73.454158,15.076522 53.094197,11.070944 38.575929,8.2146487 21.911269,16.606607 15.008243,30.250193 4.3973793,51.222196 15.88971,76.59889 38.596548,82.336505 c 6.61867,1.672421 17.419671,0.49251 24.097526,-2.632436 z M 35.929447,67.485221 C 34.612322,66.44917 32.11382,62.937885 30.37722,59.682367 27.75386,54.76448 27.21099,52.732463 27.167881,47.669491 27.104861,40.267716 29.244962,36.660899 35.495088,33.635265 l 4.147256,-2.007652 3.781887,1.929375 3.781887,1.929375 3.732177,-1.945319 c 3.539156,-1.844711 3.898621,-1.866335 6.950515,-0.418116 1.770087,0.83996 4.189507,2.560961 5.376488,3.824445 l 2.158148,2.297243 -2.5131,2.623112 c -3.496185,3.64923 -3.409027,7.895743 0.217082,10.576642 2.674442,1.9773 2.703894,2.09302 1.442566,5.668006 -1.732584,4.910665 -5.801524,10.084594 -8.454489,10.750446 -1.286721,0.322946 -3.331187,-0.145328 -5.038999,-1.154158 -2.518056,-1.487451 -3.250517,-1.544503 -5.917151,-0.460883 -5.272614,2.142591 -6.75928,2.180837 -9.229907,0.23744 z m 9.891244,-36.456355 c 1.232928,-5.071936 9.828144,-11.017299 9.148574,-6.328125 -0.481079,3.319538 -2.409332,6.22003 -5.039187,7.579982 -3.871185,2.001867 -4.829372,1.709972 -4.109387,-1.251857 z"
     id="path3338"
     inkscape:connector-curvature="0" />
</svg>
