<?xml version="1.0" encoding="UTF-8" standalone="no"?>
<!-- Created with Inkscape (http://www.inkscape.org/) -->

<svg
  
   xmlns="http://www.w3.org/2000/svg"
   xmlns:sodipodi="http://sodipodi.sourceforge.net/DTD/sodipodi-0.dtd"
   xmlns:inkscape="http://www.inkscape.org/namespaces/inkscape"
   id="svg2"
   version="1.1"
   inkscape:version="0.91 r13725"
   width="93.75"
   height="93.75"
   viewBox="0 0 93.75 93.75"
   sodipodi:docname="windows.svg">
  <metadata
     id="metadata8">
    <rdf:RDF>
      <cc:Work
         rdf:about="">
        <dc:format>image/svg+xml</dc:format>
        <dc:type
           rdf:resource="http://purl.org/dc/dcmitype/StillImage" />
        <dc:title></dc:title>
      </cc:Work>
    </rdf:RDF>
  </metadata>
  <defs
     id="defs6" />
  <sodipodi:namedview
     pagecolor="#ffffff"
     bordercolor="#666666"
     borderopacity="1"
     objecttolerance="10"
     gridtolerance="10"
     guidetolerance="10"
     inkscape:pageopacity="0"
     inkscape:pageshadow="2"
     inkscape:window-width="640"
     inkscape:window-height="480"
     id="namedview4"
     showgrid="false"
     inkscape:zoom="2.5173333"
     inkscape:cx="46.875"
     inkscape:cy="46.875"
     inkscape:window-x="248"
     inkscape:window-y="206"
     inkscape:window-maximized="0"
     inkscape:current-layer="svg2" />
  <path
     style="fill:#292929"
     d="M 36.80874,90.312511 C 21.392091,86.96312 8.3620756,75.024757 3.7163682,59.992616 -5.1745048,31.224362 16.324482,2.6694917 46.875,2.6694917 c 20.029943,0 36.793847,11.9438743 43.052066,30.6735523 3.688052,11.037648 1.994988,26.435525 -3.983264,36.226509 -6.12794,10.03614 -17.884455,18.336137 -29.440858,20.78499 -7.702786,1.632254 -12.030276,1.623019 -19.694204,-0.04203 z M 58.260623,81.434963 C 73.460159,76.691193 83.669396,62.707386 83.596417,46.731992 83.542219,34.8675 78.571799,24.982524 69.185977,18.073076 62.05283,12.821952 55.692718,10.728162 46.875,10.728162 c -8.817718,0 -15.177831,2.09379 -22.310978,7.344914 C 15.178201,24.982524 10.207781,34.8675 10.153582,46.731992 10.040014,71.592865 34.125614,88.967491 58.260623,81.434963 Z M 53.90625,67.734598 C 41.981709,65.411365 43.125,66.447467 43.125,57.964131 l 0,-7.482139 9.375,0 9.375,0 0,9.375 c 0,5.15625 -0.316406,9.325762 -0.703125,9.265582 -0.386719,-0.06018 -3.65625,-0.68477 -7.265625,-1.387976 z m -22.5,-4.014434 -6.5625,-1.552584 -0.27911,-5.842794 -0.27911,-5.842794 7.544735,0 7.544735,0 0,7.5 c 0,4.125 -0.316406,7.45292 -0.703125,7.395378 -0.386719,-0.05754 -3.65625,-0.803286 -7.265625,-1.657206 z m -7.03125,-22.49721 0,-5.509037 7.5,-1.883508 7.5,-1.883507 0,7.392545 0,7.392545 -7.5,0 -7.5,0 0,-5.509038 z m 18.75,-1.85872 0,-7.367757 9.375,-1.869614 9.375,-1.869613 0,9.237371 0,9.237371 -9.375,0 -9.375,0 0,-7.367758 z"
     id="path3364"
     inkscape:connector-curvature="0" />
</svg>
